<?xml version="1.0" encoding="utf-8"?>
<!-- Generator: Adobe Illustrator 22.1.0, SVG Export Plug-In . SVG Version: 6.00 Build 0)  -->
<svg version="1.1" id="Layer_1" xmlns="http://www.w3.org/2000/svg" xmlns:xlink="http://www.w3.org/1999/xlink" x="0px" y="0px"
	 viewBox="0 0 1000 1000" style="enable-background:new 0 0 1000 1000;" xml:space="preserve">
<style type="text/css">
	.st0{fill:#55B3DC;}
</style>
<path class="st0" d="M371.8,621.9c16.9-53.6,37.4-105.1,22.5-163.1c-10.3-39.9-32.4-79.6-53.1-116.2
	C298,266.6,237.3,185.2,180.8,115C70.3,206.5,0,344.5,0,498.9C-0.1,565.6,13.3,631.6,39.2,693c122.7,16,223.9,9.1,311-6.7
	C357.6,665.3,364.8,643.9,371.8,621.9z"/>
<path class="st0" d="M819,114.8C758,191.2,699.4,268.2,648.7,361c-20.5,37.5-46.9,84.6-49,130.5c-1.7,37,11.5,81.4,24,122.1
	c39.1-9.9,76.2-16.5,113-16.5c138.8,0,203,71,221.7,101.4c27.5-62.9,41.7-130.8,41.6-199.4C1000,344.4,929.6,206.3,819,114.8z"/>
<path class="st0" d="M927.8,758.5C840.7,903.4,679.5,1000,498,1000c-183.9,0-344.4-99.7-430.2-247.9
	c322.5,44.9,489.5-88.4,660.1-88.4C866.9,663.7,917,746.3,927.8,758.5z"/>
<path class="st0" d="M500,0c-85.8-0.1-170.3,22-245.1,64.1c44.6,53.3,90,115.2,129.2,182.8c37.5,64.7,82.3,147.2,87.9,238.5
	c2.4,40.2-4.5,83.9-12.3,122.3c-3.9,19.4-8.3,38.2-13,56.8c34.7-9.2,67.1-19.1,97.9-28.4c-8.4-37.6-14.4-76.3-16.7-116.1
	c-3.7-66.1,14.3-120.8,34.7-169.2c39.2-93,92.6-170.3,153.3-250.6c9-12,18.4-27.8,27.9-36.8C669.4,21.7,585.4-0.1,500,0z M500,239.5
	c-51.6-0.1-93.4-42-93.3-93.7s42-93.4,93.7-93.3c51.5,0.1,93.3,41.9,93.3,93.5C593.6,197.7,551.7,239.5,500,239.5
	C500,239.5,500,239.5,500,239.5z"/>
</svg>
