<?xml version="1.0" encoding="UTF-8"?>
<svg width="56.65mm" height="15.961mm" version="1.1" viewBox="0 0 56.65 15.961" xmlns="http://www.w3.org/2000/svg">
  <g transform="translate(-77.508 -140.85)">
    <g fill="#231f20">
      <path d="m88.473 156.69v-3.5204c0-0.0755 0.054-0.12418 0.12912-0.12418h0.54927c0.0698 0 0.11289 0.0272 0.15064 0.0808l1.2866 1.8302 1.2809-1.8302c0.043-0.0536 0.0864-0.0808 0.15628-0.0808h0.55986c0.0755 0 0.12383 0.0487 0.12383 0.12418v3.5204c0 0.0751-0.0483 0.12382-0.12383 0.12382h-0.76447c-0.0808 0-0.12911-0.0487-0.12911-0.12382v-1.8143l-0.80187 1.1737c-0.0377 0.054-0.0808 0.0808-0.15099 0.0808h-0.29068c-0.0699 0-0.11819-0.0268-0.15593-0.0808l-0.80222-1.1843v1.8249c0 0.0751-0.0483 0.12382-0.12912 0.12382h-0.75917c-0.0752 0-0.12912-0.0487-0.12912-0.12382"/>
      <path d="m97.918 155.36-0.46849-1.1571-0.46813 1.1571zm-2.5407 1.3081 1.5501-3.5313c0.0272-0.0593 0.0755-0.0917 0.14534-0.0917h0.75918c0.0698 0 0.11854 0.0275 0.14535 0.0917l1.5448 3.5313c0.0377 0.0861-5e-3 0.14534-0.097 0.14534h-0.8181c-0.0698 0-0.11853-0.0324-0.14534-0.0967l-0.23142-0.5655h-1.5558l-0.23142 0.5655c-0.0268 0.0642-0.0755 0.0967-0.14535 0.0967h-0.82373c-0.0914 0-0.12912-0.0593-0.0967-0.14534"/>
      <path d="m103.21 154.86h0.59196c0.41451 0 0.69427-0.16157 0.69427-0.49495 0-0.32314-0.26881-0.49565-0.66746-0.49565h-0.61877zm2.4222 1.954h-0.9151c-0.0646 0-0.11289-0.0268-0.15064-0.0804l-0.78599-1.0446h-0.57044v1.0012c0 0.0751-0.0487 0.12383-0.12382 0.12383h-0.76447c-0.0752 0-0.12912-0.0487-0.12912-0.12383v-3.5204c0-0.0755 0.054-0.12418 0.12912-0.12418h1.5878c0.9906 0 1.6097 0.47414 1.6097 1.3194 0 0.5648-0.25294 0.94192-0.7052 1.1465l0.90417 1.1571c0.0593 0.0804 0.0215 0.14535-0.0861 0.14535"/>
      <path d="m112.09 156.81h-0.94756c-0.0646 0-0.1023-0.0268-0.14535-0.0755l-1.5395-1.6309v1.5826c0 0.0751-0.0483 0.12382-0.12347 0.12382h-0.77011c-0.0752 0-0.12383-0.0487-0.12383-0.12382v-3.5204c0-0.0755 0.0487-0.12418 0.12383-0.12418h0.77011c0.0751 0 0.12347 0.0487 0.12347 0.12418v1.6094l1.4319-1.663c0.0377-0.0487 0.097-0.0705 0.15628-0.0705h0.91511c0.1023 0 0.1344 0.0705 0.0646 0.15099l-1.4912 1.7332 1.6309 1.7388c0.0646 0.0755 0.0215 0.14534-0.0751 0.14534"/>
      <path d="m117.67 153.86h-1.8193v0.68333h1.5286c0.0808 0 0.12912 0.0434 0.12912 0.11853v0.55986c0 0.0755-0.0483 0.11854-0.12912 0.11854h-1.5286v0.66216h1.8193c0.0755 0 0.12382 0.043 0.12382 0.11818v0.57079c0 0.0752-0.0483 0.12383-0.12382 0.12383h-2.7076c-0.0755 0-0.12947-0.0487-0.12947-0.12383v-3.5204c0-0.0755 0.054-0.12418 0.12947-0.12418h2.7076c0.0755 0 0.12382 0.0487 0.12382 0.12418v0.57044c0 0.0755-0.0483 0.11853-0.12382 0.11853"/>
      <path d="m123.83 153.17v0.59725c0 0.0755-0.0536 0.12418-0.12913 0.12418h-1.082v2.7989c0 0.0751-0.0483 0.12382-0.12911 0.12382h-0.76447c-0.0755 0-0.12383-0.0487-0.12383-0.12382v-2.7989h-1.082c-0.0755 0-0.12911-0.0487-0.12911-0.12418v-0.59725c0-0.0755 0.0536-0.12418 0.12911-0.12418h3.1814c0.0755 0 0.12913 0.0487 0.12913 0.12418"/>
      <path d="m134.16 155.16h-8.007v-0.65334h8.007z"/>
      <path d="m85.516 155.16h-8.0074v-0.65334h8.0074z"/>
      <path d="m79.798 145.33h-0.78528v-2.8504l0.78528 4e-3c0.7747 0 1.6937 0.26635 1.6937 1.415 0 1.119-0.9271 1.4319-1.6937 1.4319m0.49424-4.293h-2.7838v9.3338h1.4746l-7e-3 -3.7408 0.94968-7e-3c0.17921 0 0.34748-0.0106 0.49953-0.0321h8e-3c1.4693-0.0751 2.6367-1.2905 2.6367-2.7757 0-1.5335-1.2446-2.7781-2.7781-2.7781"/>
      <path d="m107.07 141.07v6.9173c0 0.56303-0.43286 1.1204-1.1469 1.1204-0.71191 0-1.1261-0.55739-1.1261-1.1204v-6.9173h-1.4605v6.8351c0 1.6037 0.96414 2.642 2.613 2.642 1.6464 0 2.5809-1.0382 2.5809-2.642v-6.8351z"/>
      <path d="m94.249 144.55v3.3768c0 0.56303-0.43286 1.1204-1.1469 1.1204-0.71191 0-1.1261-0.55739-1.1261-1.1204v-4.203c0-0.56303 0.41416-1.1204 1.1261-1.1204 0.71402 0 1.1469 0.55739 1.1469 1.1204zm-1.1366-3.4435c-1.6175 0-2.6377 1.0202-2.6377 2.5947v4.2485c0 1.5741 1.0202 2.594 2.6377 2.594 1.6178 0 2.6381-1.0199 2.6381-2.594v-4.2485c0-1.5744-1.0202-2.5947-2.6381-2.5947"/>
      <path d="m115.15 143.94v-0.38664c0-1.6401-0.95497-2.7033-2.6402-2.7033-1.6856 0-2.6712 1.0633-2.6712 2.7033v4.2894c0 1.6397 0.98566 2.703 2.6712 2.703 1.6852 0 2.6402-1.0633 2.6402-2.7058v-1.2298l-1.4905 2e-3 -3e-3 1.3141c0 0.57714-0.44344 1.1462-1.1723 1.1462s-1.1515-0.56903-1.1515-1.1462v-4.4566c0-0.57715 0.42262-1.1462 1.1515-1.1462s1.1723 0.56903 1.1723 1.1462v0.47025z"/>
      <path d="m118.03 144.89h2.1911v1.5088h-2.1911v2.5255h3.2173v1.4425h-4.718v-9.2766h4.5787v1.4171h-3.078z"/>
      <path d="m126.48 146.12c0.80186-0.43533 1.3272-1.4796 1.3272-2.4567 0-1.3966-1.1123-2.5344-2.4984-2.5746-0.0187 0-2.9157-1e-3 -2.9157-1e-3v9.2784h1.4764v-3.9553h1.1116l1.6041 3.9553h1.7184zm-2.6053-3.7073 1.0834-3.5e-4c0.75141 0.0187 1.354 0.63747 1.354 1.3917 0 0.75389-0.60255 1.3751-1.354 1.3938h-1.0837z"/>
      <path d="m123.88 145.21v0.0106c-8e-3 -8e-3 -3e-3 -0.0106 0-0.0106"/>
      <path d="m100.52 147.03c0 1.3106-0.18838 1.977-1.6436 1.977h-0.35031v-6.5303h0.35031c1.4552 0 1.6436 0.81703 1.6436 1.983zm-1.2612-5.9641h-2.1932v9.3179h2.1932c2.0549 0 2.7732-1.0802 2.7534-2.8413v-3.6329c0-1.6464-0.6985-2.8437-2.7534-2.8437"/>
      <path d="m132.33 145.39c1.2308 0.7493 1.8284 1.2912 1.8284 2.7905 0 1.04-0.85549 2.3456-2.527 2.3456-0.14323 0-2.8342 0.11853-2.8342-2.6109l-2e-3 -0.10936 1.4718-0.20073s-0.0215 0.15522-0.024 0.2794c-0.0162 0.71085 0.4498 1.2093 1.1984 1.2093 0.73484 0 1.2153-0.33831 1.2153-1.0241 0-0.85019-0.69533-1.2019-1.6845-1.9142-1.0245-0.73766-2.1301-1.39-2.0948-2.697 0.0314-1.1673 0.8121-2.4031 2.7545-2.4031 1.6715 0 2.4243 0.92004 2.4243 2.4881v0.4766l-1.4658 0.10725v-0.508c0-0.87313-0.52352-1.1814-1.1285-1.1814-0.6029 0-1.0604 0.33055-1.1074 1.0086-0.0427 0.62089 0.83573 1.2492 1.9759 1.9434"/>
      <path d="m88.001 146.12c0.80186-0.43533 1.3272-1.4796 1.3272-2.4567 0-1.3966-1.1123-2.5344-2.4984-2.5746-0.0187 0-2.9157-1e-3 -2.9157-1e-3v9.2784h1.4764v-3.9553h1.1116l1.6041 3.9553h1.7184zm-2.6053-3.7073 1.0834-3.5e-4c0.75141 0.0187 1.354 0.63747 1.354 1.3917 0 0.75389-0.60255 1.3751-1.354 1.3938h-1.0837z" />
    </g>
    <g fill="#c4a02a">
      <path d="m107.07 142.52 1.4598-1.4453h-1.4644z"/>
      <path d="m103.33 142.52 1.4602-1.4453h-1.4647z"/>
      <path d="m97.067 142.52 1.4584-1.4453h-1.4577z"/>
      <path d="m113.66 147.91 1.4922-1.301h-1.4908z"/>
      <path d="m122.39 142.54 1.47-1.4453h-1.4711z"/>
    </g>
    <g fill="#c4a02a">
      <path d="m83.914 142.54 1.47-1.4453h-1.4711z"/>
      <path d="m116.53 142.54 1.47-1.4453h-1.4711z"/>
      <path d="m77.51 142.48 1.47-1.4453h-1.4711z"/>
    </g>
  </g>
</svg>
